# Blender 4.1.1
# www.blender.org
mtllib SM_Plant_A.mtl
o Cube.004
v -1.185388 -0.079439 0.344991
v -0.611392 0.138390 0.224033
v 0.069064 0.644173 0.375570
v -0.349119 0.094389 -0.002238
v -0.823288 -0.140188 0.032595
v -0.071692 0.667788 0.497004
v -0.897290 0.299322 0.605273
v -0.639410 -0.053857 0.318255
v 0.096371 0.214732 0.715052
v -0.574888 0.035390 0.830786
v 0.066464 0.173366 0.477492
v -0.236174 0.053877 0.248732
v -0.421189 0.544441 0.657441
v 0.263748 -0.223487 0.556366
v -0.110113 -0.231558 0.663416
v -0.394993 0.041891 0.711035
v -0.047328 0.552512 0.550391
v 0.237553 0.279063 0.502772
v 0.300903 0.151801 0.711076
v -0.161334 0.553661 0.583026
v -0.571140 1.307279 0.659971
v -0.452650 0.576545 0.391891
v -0.101295 0.183394 0.447189
v -0.414797 1.294998 0.762549
v 0.219273 0.655223 0.895764
v 0.389162 -0.094942 0.233467
v -0.430658 -0.147572 0.543445
v 0.149933 0.251242 0.546105
v -0.319774 -0.308030 0.398536
v 0.040392 -0.334516 0.231869
v -0.048059 0.251884 0.683925
v -0.760328 0.050686 -0.038058
v -0.638492 -0.163894 0.262622
v -0.370953 -0.115100 0.552865
v -0.169896 0.466464 0.383245
v -0.437435 0.417670 0.093002
v -0.363652 -0.230726 0.570212
v -0.091717 0.166557 0.170500
v 0.144601 0.950607 -0.096371
v 0.082432 0.166557 -0.132145
v -0.123218 -0.230726 0.152373
v 0.051139 0.950607 0.066051
v -0.320822 0.309428 0.594857
v -0.826552 0.734788 0.178498
v -0.091552 1.152381 -0.058890
v -0.791980 1.154773 -0.133324
v -0.107576 0.957716 0.085641
v -0.405793 0.733351 0.223212
v 0.063429 0.611006 0.012385
v -0.902065 0.811689 0.323218
v -0.561787 0.874664 0.500820
v -0.180299 0.809749 0.408885
v -0.276849 0.548031 -0.165217
v -0.658337 0.612945 -0.073282
v -0.554163 1.287774 0.152062
v -0.224612 0.758274 0.202839
v -0.066944 -0.071061 0.032123
v 0.061066 0.633238 0.359924
v -0.159748 1.115147 0.368938
v -0.220261 -0.003958 -0.052181
v -0.642353 0.802562 -0.073769
v -0.219878 1.350620 0.101086
v -0.076208 1.787689 0.848944
v -0.039106 1.150651 0.550696
v -0.159997 1.880376 0.640547
v -0.242166 1.733299 0.280247
v -0.530822 1.532664 0.227186
v 0.452048 1.845391 0.299548
v 0.167302 1.845391 0.564533
v -0.214421 1.733679 0.567183
v -0.246076 1.532664 -0.037799
v 0.135646 1.644375 -0.040449
v -0.274635 0.352961 -0.493360
v -0.680472 -0.033538 -0.215031
v -0.990215 -0.811599 -0.013834
v -0.965267 -0.024671 -0.013203
v -0.667831 0.365203 -0.214712
v -0.837372 -0.816358 -0.122151
v -0.291822 -0.189175 -0.493795
v -0.422737 -0.381397 0.075052
v -0.639562 -0.051653 -0.709306
v -0.727452 0.035373 -0.015874
v -0.498324 -0.244828 -0.667161
v -0.369939 -0.433675 -0.341503
v -1.097963 -0.035154 -0.400748
v -0.199456 0.459633 -0.530899
v -0.564448 0.593949 -0.537018
v -0.924665 0.431648 -0.491184
v -0.732971 -0.169470 -0.394628
v -0.372754 -0.007169 -0.440463
v -0.195142 -0.378029 0.334343
v -0.256887 -0.098570 -0.222112
v -0.685514 0.362305 -0.810053
v -0.079020 -0.046012 -0.517954
v 0.050426 -0.305466 -0.074104
v -0.780971 0.334098 -0.651281
v -0.612972 -0.096728 0.133108
v -0.135775 0.031350 0.099508
v -0.422972 0.616821 -0.488457
v 0.084692 0.492672 -0.016217
v -0.525160 0.402996 -0.434818
v -0.440737 0.105928 -0.184174
v -0.052821 0.374214 -0.611886
v -0.835721 0.930695 -0.229179
v -0.481703 1.041049 -0.346612
v -0.163963 0.854132 -0.495952
v -0.406839 0.263860 -0.494453
v -0.724579 0.450777 -0.345113
v 0.205769 0.750613 0.133672
v -0.294734 0.698052 -0.238196
v -0.798249 0.281002 -0.798858
v -0.575502 0.879717 -0.338637
v -0.181867 1.001424 -0.005000
v -0.647567 0.183507 -0.744954
v 0.052313 0.338142 -0.183387
v -0.127466 0.463306 -0.043271
v -0.282471 0.699534 -0.874614
v 0.019371 0.910459 -0.274158
v -0.350531 0.492276 -0.767597
v -0.308788 0.336599 -0.403974
v -0.042944 0.264593 0.008202
v -0.293786 1.237293 -0.236749
v -0.070612 0.979649 -0.424126
v 0.042995 0.604474 -0.356778
v -0.266118 0.522237 0.195579
v -0.379725 0.897412 0.128230
v 0.051998 -0.399840 1.100574
v 0.274890 -0.165385 0.564941
v 0.551456 0.474908 0.059632
v 0.369583 -0.268351 0.245015
v 0.182733 -0.541998 0.658876
v 0.500636 0.530168 0.231330
v 0.177295 0.112212 0.972858
v -0.262418 -0.159085 0.599793
v 0.267362 0.537997 0.665927
v 0.260658 -0.159085 0.565036
v 0.024913 0.537997 0.682037
v -0.258391 0.259663 0.660400
v 0.168396 0.906700 0.059138
v -0.076090 0.669021 1.035254
v 0.268299 0.669021 0.854441
v 0.392672 0.753925 0.486308
v -0.175993 0.906700 0.239952
v -0.300366 0.821797 0.608084
v 0.239617 0.941128 0.574980
v 0.177372 0.354056 0.367557
v 0.482396 -0.399943 0.084278
v -0.070707 0.119462 0.294457
v -0.102888 0.617241 0.474056
v 0.615535 -0.274041 0.123509
v 0.620665 0.583296 0.430182
v -0.170510 0.666489 0.469162
v 0.479120 0.740446 -0.116904
v 0.343852 0.666489 0.570394
v 0.240711 0.740446 -0.163826
v -0.089252 0.710916 0.056291
v -0.284212 1.563897 0.353135
v 0.747902 1.610513 0.312708
v 0.481507 1.677523 0.037317
v 0.084167 1.668078 0.022140
v -0.017817 1.496887 0.628527
v 0.379523 1.506333 0.643704
v 0.019570 2.502233 0.928148
v 0.099528 2.242903 0.364316
v 0.253776 1.581325 -0.165139
v 0.101587 2.329747 0.026122
v 0.022412 2.622133 0.461228
v 0.252671 1.534717 0.016363
v 0.124418 1.986624 0.796383
v 0.445824 -0.316700 0.201821
v 0.747845 0.468469 0.453327
v 0.781420 -0.221096 0.593039
v 0.592295 0.424156 0.271995
v 0.425655 0.097533 0.117894
v 0.868243 0.261664 0.086495
v 0.296930 0.957889 0.594373
v 0.559869 1.005414 0.311705
v 0.792231 0.761822 0.099881
v 0.605304 0.214139 0.369164
v 0.372942 0.457731 0.580988
v 0.682825 1.312273 -0.462141
v 0.582807 0.922925 0.017396
v 0.611079 0.154532 0.405435
v 0.451966 0.922925 0.341128
v 0.502183 1.312273 -0.015189
v 0.681298 0.154532 0.231695
v 0.792442 0.782906 -0.417838
v -0.232363 0.679047 -0.461646
v 0.509401 0.574348 -0.003622
v -0.125668 0.293808 -0.122495
v 0.459947 0.752909 -0.160820
v 0.149133 0.847572 -0.390236
v 0.438286 0.889280 -0.131590
v 0.392447 0.154704 -0.857788
v 0.517180 0.137960 -0.489741
v 0.546970 0.398564 -0.190747
v 0.313552 0.906024 -0.499637
v 0.283763 0.645420 -0.798631
v -0.375999 1.800547 -0.008639
v 0.159633 2.035238 -0.231283
v 1.014847 2.042412 -0.333062
v 0.276682 2.299629 -0.427034
v -0.214399 2.165571 -0.278899
v 0.952029 1.900519 -0.228007
v 0.132543 1.623343 0.056101
v -0.035284 1.756567 -0.043248
v 0.535401 1.240486 -0.466262
v 0.485988 1.810740 -0.055757
v 0.293788 1.215377 -0.460464
v -0.005601 1.414006 -0.289845
v 0.348900 -0.071026 -0.483179
v 0.835192 0.391395 0.303430
v 0.458991 0.391395 0.204589
v 0.244818 0.226210 -0.087032
v 0.725102 -0.071026 -0.384337
v 0.939274 0.094159 -0.092716
v 0.373479 -0.166483 -0.602646
v 0.541459 0.240813 -0.158299
v 0.786085 1.017107 0.123349
v 0.591838 0.256769 0.186851
v 0.443033 -0.144454 -0.126123
v 0.759048 1.008544 -0.061885
v 0.507301 0.357335 -0.646394
v 0.252574 0.744817 -0.445714
v 0.890593 0.143165 -0.489408
v 0.601353 0.686008 -0.832639
v 0.728932 0.170423 -0.310066
v 0.426325 0.418722 -0.239530
v 0.718811 -0.114035 0.351460
v 0.578529 0.431883 -0.515351
v 0.745424 0.084904 -0.460139
v 0.813484 -0.147425 -0.144560
v 0.551916 0.232945 0.296248
v 0.483855 0.465274 -0.019330
vn -0.3920 0.7046 -0.5914
vn -0.2769 0.9519 -0.1309
vn 0.2711 0.1160 0.9555
vn -0.5304 -0.3665 0.7645
vn 0.3352 -0.4933 0.8027
vn 0.7034 -0.4121 -0.5791
vn -0.8631 0.0911 -0.4967
vn 0.0826 -0.5985 -0.7969
vn -0.0525 -0.9053 0.4215
vn -0.5515 -0.2675 0.7901
vn -0.9372 -0.1912 0.2918
vn -0.2706 0.9177 -0.2908
vn -0.5777 0.0190 -0.8160
vn -0.8041 -0.5939 -0.0274
vn -0.0472 -0.1731 -0.9838
vn -0.3836 -0.8417 -0.3801
vn -0.5511 0.4411 0.7084
vn 0.3513 -0.1422 0.9254
vn 0.5229 0.3886 -0.7587
vn -0.8590 0.4275 0.2816
vn 0.8012 0.3320 0.4978
vn -0.9344 0.1478 -0.3241
vn 0.0656 -0.1435 0.9875
vn 0.0656 -0.1436 0.9875
vn -0.1403 -0.9533 -0.2673
vn -0.0412 0.3367 -0.9407
vn -0.0203 0.9945 0.1030
vn 0.0331 -0.9633 -0.2664
vn 0.9811 0.1858 0.0537
vn -0.7668 0.0914 0.6354
vn 0.7214 0.0913 0.6864
vn -0.9048 -0.2180 -0.3657
vn -0.3817 0.5489 0.7436
vn 0.9225 0.2407 -0.3017
vn 0.0928 0.5656 0.8194
vn -0.0795 0.5778 -0.8123
vn 0.1492 0.8093 -0.5681
vn 0.9583 -0.2555 -0.1281
vn -0.6235 -0.6273 -0.4667
vn 0.8837 0.4471 0.1386
vt 0.412890 0.594886
vt 0.535910 0.620164
vt 0.412890 0.649444
vt 0.350556 0.594886
vt 0.350556 0.519561
vt 0.435307 0.519561
vt 0.535910 0.649444
vt 0.062305 0.114411
vt 0.128419 0.114411
vt 0.128419 0.196321
vt 0.018360 0.196321
vt 0.018360 0.158355
vt 0.557140 0.070326
vt 0.601084 0.026381
vt 0.661861 0.105456
vt 0.661861 0.026381
vt 0.617916 0.149400
vt 0.557140 0.149400
s 0
usemtl Leaves
f 2/1/1 6/2/1 4/3/1
f 5/4/1 1/5/1 2/1/1
f 1/5/1 7/6/1 2/1/1
f 7/6/1 6/2/1 2/1/1
f 6/2/1 3/7/1 4/3/1
f 12/8/2 8/9/2 10/10/2
f 9/11/2 11/12/2 10/10/2
f 11/12/2 12/8/2 10/10/2
f 18/13/3 17/14/3 16/15/3
f 17/14/3 13/16/3 16/15/3
f 16/15/3 15/17/3 18/13/3
f 15/17/3 14/18/3 18/13/3
f 20/1/4 24/2/4 22/3/4
f 23/4/4 19/5/4 20/1/4
f 19/5/4 25/6/4 20/1/4
f 25/6/4 24/2/4 20/1/4
f 24/2/4 21/7/4 22/3/4
f 30/8/5 26/9/5 28/10/5
f 27/11/5 29/12/5 28/10/5
f 29/12/5 30/8/5 28/10/5
f 36/13/6 35/14/6 34/15/6
f 35/14/6 31/16/6 34/15/6
f 34/15/6 33/17/6 36/13/6
f 33/17/6 32/18/6 36/13/6
f 38/1/7 42/2/7 40/3/7
f 41/4/7 37/5/7 38/1/7
f 37/5/7 43/6/7 38/1/7
f 43/6/7 42/2/7 38/1/7
f 42/2/7 39/7/7 40/3/7
f 48/8/8 44/9/8 46/10/8
f 45/11/8 47/12/8 46/10/8
f 47/12/8 48/8/8 46/10/8
f 54/13/9 53/14/9 52/15/9
f 53/14/9 49/16/9 52/15/9
f 52/15/9 51/17/9 54/13/9
f 51/17/9 50/18/9 54/13/9
f 56/1/10 60/2/10 58/3/10
f 59/4/10 55/5/10 56/1/10
f 55/5/10 61/6/10 56/1/10
f 61/6/10 60/2/10 56/1/10
f 60/2/10 57/7/10 58/3/10
f 66/8/11 62/9/11 64/10/11
f 63/11/11 65/12/11 64/10/11
f 65/12/11 66/8/11 64/10/11
f 72/13/12 71/14/12 70/15/12
f 71/14/12 67/16/12 70/15/12
f 70/15/12 69/17/12 72/13/12
f 69/17/12 68/18/12 72/13/12
f 74/1/13 78/2/13 76/3/13
f 77/4/13 73/5/13 74/1/13
f 73/5/13 79/6/13 74/1/13
f 79/6/13 78/2/13 74/1/13
f 78/2/13 75/7/13 76/3/13
f 84/8/14 80/9/14 82/10/14
f 81/11/14 83/12/14 82/10/14
f 83/12/14 84/8/14 82/10/14
f 90/13/15 89/14/15 88/15/15
f 89/14/15 85/16/15 88/15/15
f 88/15/15 87/17/15 90/13/15
f 87/17/15 86/18/15 90/13/15
f 92/1/16 96/2/16 94/3/16
f 95/4/16 91/5/16 92/1/16
f 91/5/16 97/6/16 92/1/16
f 97/6/16 96/2/16 92/1/16
f 96/2/16 93/7/16 94/3/16
f 102/8/17 98/9/17 100/10/17
f 99/11/17 101/12/17 100/10/17
f 101/12/17 102/8/17 100/10/17
f 108/13/18 107/14/18 106/15/18
f 107/14/18 103/16/18 106/15/18
f 106/15/18 105/17/18 108/13/18
f 105/17/18 104/18/18 108/13/18
f 110/1/19 114/2/19 112/3/19
f 113/4/19 109/5/19 110/1/19
f 109/5/19 115/6/19 110/1/19
f 115/6/19 114/2/19 110/1/19
f 114/2/19 111/7/19 112/3/19
f 120/8/20 116/9/20 118/10/20
f 117/11/20 119/12/20 118/10/20
f 119/12/20 120/8/20 118/10/20
f 126/13/21 125/14/21 124/15/21
f 125/14/21 121/16/21 124/15/21
f 124/15/21 123/17/21 126/13/21
f 123/17/21 122/18/21 126/13/21
f 128/1/22 132/2/22 130/3/22
f 131/4/22 127/5/22 128/1/22
f 127/5/22 133/6/22 128/1/22
f 133/6/22 132/2/22 128/1/22
f 132/2/22 129/7/22 130/3/22
f 138/8/23 134/9/23 136/10/23
f 135/11/23 137/12/23 136/10/23
f 137/12/24 138/8/24 136/10/24
f 144/13/25 143/14/25 142/15/25
f 143/14/25 139/16/25 142/15/25
f 142/15/25 141/17/25 144/13/25
f 141/17/25 140/18/25 144/13/25
f 146/1/26 150/2/26 148/3/26
f 149/4/26 145/5/26 146/1/26
f 145/5/26 151/6/26 146/1/26
f 151/6/26 150/2/26 146/1/26
f 150/2/26 147/7/26 148/3/26
f 156/8/27 152/9/27 154/10/27
f 153/11/27 155/12/27 154/10/27
f 155/12/27 156/8/27 154/10/27
f 162/13/28 161/14/28 160/15/28
f 161/14/28 157/16/28 160/15/28
f 160/15/28 159/17/28 162/13/28
f 159/17/28 158/18/28 162/13/28
f 164/1/29 168/2/29 166/3/29
f 167/4/29 163/5/29 164/1/29
f 163/5/29 169/6/29 164/1/29
f 169/6/29 168/2/29 164/1/29
f 168/2/29 165/7/29 166/3/29
f 174/8/30 170/9/30 172/10/30
f 171/11/30 173/12/30 172/10/30
f 173/12/30 174/8/30 172/10/30
f 180/13/31 179/14/31 178/15/31
f 179/14/31 175/16/31 178/15/31
f 178/15/31 177/17/31 180/13/31
f 177/17/31 176/18/31 180/13/31
f 182/1/32 186/2/32 184/3/32
f 185/4/32 181/5/32 182/1/32
f 181/5/32 187/6/32 182/1/32
f 187/6/32 186/2/32 182/1/32
f 186/2/32 183/7/32 184/3/32
f 192/8/33 188/9/33 190/10/33
f 189/11/33 191/12/33 190/10/33
f 191/12/33 192/8/33 190/10/33
f 198/13/34 197/14/34 196/15/34
f 197/14/34 193/16/34 196/15/34
f 196/15/34 195/17/34 198/13/34
f 195/17/34 194/18/34 198/13/34
f 200/1/35 204/2/35 202/3/35
f 203/4/35 199/5/35 200/1/35
f 199/5/35 205/6/35 200/1/35
f 205/6/35 204/2/35 200/1/35
f 204/2/35 201/7/35 202/3/35
f 210/8/36 206/9/36 208/10/36
f 207/11/36 209/12/36 208/10/36
f 209/12/36 210/8/36 208/10/36
f 216/13/37 215/14/37 214/15/37
f 215/14/37 211/16/37 214/15/37
f 214/15/37 213/17/37 216/13/37
f 213/17/37 212/18/37 216/13/37
f 218/1/38 222/2/38 220/3/38
f 221/4/38 217/5/38 218/1/38
f 217/5/38 223/6/38 218/1/38
f 223/6/38 222/2/38 218/1/38
f 222/2/38 219/7/38 220/3/38
f 228/8/39 224/9/39 226/10/39
f 225/11/39 227/12/39 226/10/39
f 227/12/39 228/8/39 226/10/39
f 234/13/40 233/14/40 232/15/40
f 233/14/40 229/16/40 232/15/40
f 232/15/40 231/17/40 234/13/40
f 231/17/40 230/18/40 234/13/40
